<svg xmlns="http://www.w3.org/2000/svg" width="960" height="640" viewBox="0 0 960 640" fill="none">
  <defs>
    <linearGradient id="bg" x1="0" y1="0" x2="960" y2="640" gradientUnits="userSpaceOnUse">
      <stop stop-color="#17232d"/>
      <stop offset="1" stop-color="#415767"/>
    </linearGradient>
    <linearGradient id="wall" x1="105" y1="180" x2="300" y2="590" gradientUnits="userSpaceOnUse">
      <stop stop-color="#e7edf1"/>
      <stop offset="1" stop-color="#aebdc7"/>
    </linearGradient>
    <linearGradient id="roof" x1="285" y1="285" x2="815" y2="392" gradientUnits="userSpaceOnUse">
      <stop stop-color="#f3b65e"/>
      <stop offset="1" stop-color="#d9872f"/>
    </linearGradient>
    <filter id="shadow" x="80" y="155" width="800" height="450" filterUnits="userSpaceOnUse" color-interpolation-filters="sRGB">
      <feDropShadow dx="0" dy="18" stdDeviation="18" flood-color="#000" flood-opacity="0.25"/>
    </filter>
  </defs>
  <rect width="960" height="640" rx="48" fill="url(#bg)"/>
  <g filter="url(#shadow)">
    <path d="M115 185H305V565H115Z" fill="url(#wall)"/>
    <path d="M115 185H305V565H115Z" stroke="white" stroke-width="8" opacity="0.55"/>
    <path d="M146 240H274M146 300H274M146 360H274M146 420H274M146 480H274" stroke="#81929e" stroke-width="4" opacity="0.38"/>
    <path d="M298 300L790 355L830 425L298 370Z" fill="url(#roof)"/>
    <path d="M298 300L790 355L830 425L298 370Z" stroke="#fff7ed" stroke-width="8" stroke-linejoin="round" opacity="0.72"/>
    <path d="M305 288V382" stroke="#7dd3fc" stroke-width="12" stroke-linecap="round" opacity="0.85"/>
    <path d="M318 308H780" stroke="white" stroke-width="10" stroke-linecap="round" opacity="0.36"/>
    <path d="M315 370H830" stroke="white" stroke-width="14" stroke-linecap="round" opacity="0.76"/>
    <path d="M455 385V555M665 408V555M815 425V555" stroke="white" stroke-width="16" stroke-linecap="round" opacity="0.74"/>
    <path d="M455 555H815" stroke="white" stroke-width="10" stroke-linecap="round" opacity="0.17"/>
  </g>
  <circle cx="305" cy="328" r="9" fill="#7dd3fc"/>
  <circle cx="305" cy="358" r="9" fill="#7dd3fc"/>
  <text x="70" y="110" fill="white" font-family="Arial, sans-serif" font-size="54" font-weight="800">Навес к дому</text>
  <text x="72" y="160" fill="white" opacity="0.68" font-family="Arial, sans-serif" font-size="24">Стена, линия крепления и стойки навеса</text>
</svg>
